<svg width="92" height="92" viewBox="0 0 92 92" fill="none" xmlns="http://www.w3.org/2000/svg">
<path fill-rule="evenodd" clip-rule="evenodd" d="M46 46.0001C46 39.6488 51.1487 34.5001 57.5 34.5001C63.8513 34.5001 69 39.6488 69 46.0001C69 52.3514 63.8513 57.5001 57.5 57.5001C51.1487 57.5001 46 52.3514 46 46.0001Z" fill="#1ABCFE"/>
<path fill-rule="evenodd" clip-rule="evenodd" d="M23.0005 69.0002C23.0005 62.6489 28.1492 57.5002 34.5005 57.5002H46.0005V69.0002C46.0005 75.3514 40.8518 80.5002 34.5005 80.5002C28.1492 80.5002 23.0005 75.3514 23.0005 69.0002Z" fill="#0ACF83"/>
<path fill-rule="evenodd" clip-rule="evenodd" d="M46 11.5001V34.5001H57.5C63.8513 34.5001 69 29.3514 69 23.0001C69 16.6488 63.8513 11.5001 57.5 11.5001H46Z" fill="#FF7262"/>
<path fill-rule="evenodd" clip-rule="evenodd" d="M23 23.0001C23 29.3514 28.1487 34.5001 34.5 34.5001H46V11.5001H34.5C28.1487 11.5001 23 16.6488 23 23.0001Z" fill="#F24E1E"/>
<path fill-rule="evenodd" clip-rule="evenodd" d="M23.0005 46.0001C23.0005 52.3514 28.1492 57.5001 34.5005 57.5001H46.0005V34.5001H34.5005C28.1492 34.5001 23.0005 39.6488 23.0005 46.0001Z" fill="#A259FF"/>
</svg>
